<svg width="30" height="30" viewBox="0 0 30 30" fill="none" xmlns="http://www.w3.org/2000/svg">
<circle cx="15" cy="15" r="14.5" fill="white"/>
<path d="M18.8798 14.7608C19.2914 18.6292 20.9072 19.7983 20.9072 19.7983H8.17578C8.17578 19.7983 10.2977 18.2631 10.2977 12.8897C10.2977 11.6682 10.7448 10.4967 11.5407 9.63293C12.3365 8.76918 13.416 8.28394 14.5415 8.28394C14.7801 8.28394 15.0166 8.30574 15.2488 8.34834" stroke="black" stroke-width="1.78396" stroke-linecap="round" stroke-linejoin="round"/>
<path d="M19.4925 12.6018C20.6644 12.6018 21.6144 11.6352 21.6144 10.4429C21.6144 9.25053 20.6644 8.28394 19.4925 8.28394C18.3206 8.28394 17.3706 9.25053 17.3706 10.4429C17.3706 11.6352 18.3206 12.6018 19.4925 12.6018Z" stroke="black" stroke-width="1.78396" stroke-linecap="round" stroke-linejoin="round"/>
<path d="M15.7651 21.9573C15.6408 22.1754 15.4623 22.3565 15.2475 22.4823C15.0328 22.6081 14.7893 22.6744 14.5415 22.6744C14.2937 22.6744 14.0502 22.6081 13.8355 22.4823C13.6207 22.3565 13.4422 22.1754 13.3179 21.9573" stroke="black" stroke-width="1.78396" stroke-linecap="round" stroke-linejoin="round"/>
</svg>
